<svg width="20" height="20" viewBox="0 0 20 20" fill="none" xmlns="http://www.w3.org/2000/svg">
<g clip-path="url(#clip0_683_390)">
<path d="M19.6343 17.8712L15.7634 13.9986C18.6598 10.128 17.87 4.64214 13.9994 1.74571C10.1288 -1.15073 4.64292 -0.360966 1.74649 3.50968C-1.14994 7.38032 -0.36018 12.8662 3.51046 15.7626C6.61969 18.0893 10.8901 18.0893 13.9994 15.7626L17.872 19.6352C18.3587 20.1218 19.1477 20.1218 19.6343 19.6352C20.121 19.1485 20.121 18.3595 19.6343 17.8729L19.6343 17.8712ZM8.7872 15.0151C5.34716 15.0151 2.55848 12.2265 2.55848 8.78642C2.55848 5.34637 5.34716 2.5577 8.7872 2.5577C12.2273 2.5577 15.0159 5.34637 15.0159 8.78642C15.0123 12.2249 12.2257 15.0115 8.7872 15.0151Z" fill="#141211"/>
</g>
<defs>
<clipPath id="clip0_683_390">
<rect width="20" height="20" fill="white"/>
</clipPath>
</defs>
</svg>
