<svg width="23" height="22" viewBox="0 0 23 22" fill="none" xmlns="http://www.w3.org/2000/svg">
<path d="M7.76953 13.8077H15.4618M7.76953 9H11.6157" stroke="#141211" stroke-width="2.3" stroke-linecap="round" stroke-linejoin="round"/>
<path d="M5.94116 17.8654C4.69106 17.7424 3.75457 17.3669 3.12651 16.7388C2 15.6124 2 13.7992 2 10.1731V9.69231C2 6.06612 2 4.25303 3.12651 3.12651C4.25303 2 6.06612 2 9.69231 2H13.5385C17.1646 2 18.9778 2 20.1042 3.12651C21.2308 4.25303 21.2308 6.06612 21.2308 9.69231V10.1731C21.2308 13.7992 21.2308 15.6124 20.1042 16.7388C18.9778 17.8654 17.1646 17.8654 13.5385 17.8654C12.9995 17.8774 12.5703 17.9184 12.1487 18.0144C10.9963 18.2797 9.92933 18.8693 8.87487 19.3836C7.37239 20.1162 6.62115 20.4825 6.1497 20.1395C5.24778 19.4678 6.12937 17.3864 6.32692 16.4231" stroke="#141211" stroke-width="2.3" stroke-linecap="round"/>
</svg>
