<svg width="21" height="20" viewBox="0 0 21 20" fill="none" xmlns="http://www.w3.org/2000/svg">
<path d="M1 3.36841L7.56737 7.08647C9.96676 8.44488 11.0332 8.44488 13.4326 7.08647L20 3.36841" stroke="black" stroke-width="1.3" stroke-linejoin="round"/>
<path d="M9.075 17.1053C8.63201 17.0995 8.18848 17.0911 7.74389 17.0799C4.75281 17.0049 3.25728 16.9674 2.18271 15.8911C1.10814 14.8148 1.07708 13.3619 1.01498 10.4561C0.995013 9.52167 0.995003 8.59287 1.01497 7.65851C1.07708 4.75265 1.10813 3.29972 2.1827 2.22342C3.25728 1.14713 4.75281 1.10964 7.74388 1.03465C9.58733 0.988442 11.4127 0.988452 13.2561 1.03466C16.2472 1.10965 17.7427 1.14715 18.8172 2.22344C19.8919 3.29973 19.923 4.75266 19.985 7.65852C19.9942 8.08869 19.9991 8.29142 19.9999 8.57895" stroke="black" stroke-width="1.3" stroke-linecap="round" stroke-linejoin="round"/>
<path d="M17.1502 14.7369C17.1502 15.5217 16.5122 16.1579 15.7252 16.1579C14.9382 16.1579 14.3002 15.5217 14.3002 14.7369C14.3002 13.9521 14.9382 13.3158 15.7252 13.3158C16.5122 13.3158 17.1502 13.9521 17.1502 14.7369ZM17.1502 14.7369V15.2105C17.1502 15.9953 17.7882 16.6316 18.5752 16.6316C19.3622 16.6316 20.0002 15.9953 20.0002 15.2105V14.7369C20.0002 12.3824 18.0862 10.4737 15.7252 10.4737C13.3642 10.4737 11.4502 12.3824 11.4502 14.7369C11.4502 17.0913 13.3642 19 15.7252 19" stroke="black" stroke-width="1.3" stroke-linecap="round" stroke-linejoin="round"/>
</svg>
