<svg width="18" height="20" viewBox="0 0 18 20" fill="none" xmlns="http://www.w3.org/2000/svg">
<path d="M10.437 18.4303C10.0516 18.7957 9.53636 19 9.00015 19C8.46394 19 7.94879 18.7957 7.56332 18.4303C4.03348 15.0634 -0.696927 11.3022 1.60996 5.84169C2.85726 2.88924 5.85136 1 9.00015 1C12.149 1 15.1431 2.88924 16.3904 5.84169C18.6943 11.2954 13.9755 15.075 10.437 18.4303Z" stroke="black" stroke-width="1.3"/>
<path d="M12 9C12 10.6569 10.6569 12 9 12C7.34314 12 6 10.6569 6 9C6 7.34314 7.34314 6 9 6C10.6569 6 12 7.34314 12 9Z" stroke="black" stroke-width="1.3"/>
</svg>
