<svg width="21" height="21" viewBox="0 0 21 21" fill="none" xmlns="http://www.w3.org/2000/svg">
<path d="M7.5004 3.86291L7.07537 2.9066C6.79746 2.28132 6.65851 1.96866 6.4507 1.7294C6.19026 1.42955 5.85078 1.20894 5.471 1.09273C5.16796 1 4.82582 1 4.14156 1C3.14057 1 2.64008 1 2.21994 1.19242C1.72503 1.41908 1.27807 1.91124 1.09999 2.42563C0.948813 2.8623 0.992123 3.31106 1.07872 4.20857C2.00057 13.7619 7.23816 18.9994 16.7914 19.9212C17.689 20.0079 18.1378 20.0512 18.5744 19.9C19.0888 19.7219 19.5809 19.2749 19.8077 18.7801C20 18.3599 20 17.8594 20 16.8584C20 16.1741 20 15.832 19.9073 15.529C19.7911 15.1492 19.5705 14.8097 19.2706 14.5493C19.0314 14.3415 18.7188 14.2026 18.0935 13.9246L17.1371 13.4996C16.46 13.1986 16.1213 13.0482 15.7773 13.0155C15.448 12.9841 15.116 13.0304 14.8078 13.1504C14.4858 13.2758 14.2012 13.513 13.6318 13.9873C13.0652 14.4596 12.7819 14.6957 12.4357 14.8222C12.1287 14.9343 11.7229 14.9759 11.3997 14.9281C11.035 14.8744 10.7558 14.7253 10.1973 14.4268C8.4599 13.4983 7.50174 12.5402 6.57321 10.8026C6.27477 10.2442 6.12555 9.96493 6.07182 9.60034C6.02418 9.27703 6.0657 8.87127 6.17783 8.56442C6.3043 8.21818 6.54042 7.93485 7.01266 7.36816C7.48706 6.79888 7.72426 6.51424 7.84967 6.19218C7.96969 5.88399 8.01589 5.55197 7.98457 5.22272C7.95184 4.87866 7.80136 4.54008 7.5004 3.86291Z" stroke="black" stroke-width="1.3" stroke-linecap="round"/>
</svg>