<svg width="22" height="22" viewBox="0 0 22 22" fill="none" xmlns="http://www.w3.org/2000/svg">
<g clip-path="url(#clip0_683_377)">
<path d="M21.5977 19.6583L17.3396 15.3985C20.5257 11.1407 19.657 5.10633 15.3992 1.92025C11.1415 -1.26583 5.10712 -0.397089 1.92104 3.86062C-1.26503 8.11833 -0.396296 14.1527 3.86141 17.3388C7.28156 19.8981 11.9791 19.8981 15.3992 17.3388L19.6591 21.5987C20.1944 22.134 21.0623 22.134 21.5976 21.5987C22.1329 21.0633 22.1329 20.1954 21.5976 19.6601L21.5977 19.6583ZM9.66583 16.5166C5.88178 16.5166 2.81423 13.4491 2.81423 9.66504C2.81423 5.88098 5.88178 2.81344 9.66583 2.81344C13.4499 2.81344 16.5174 5.88098 16.5174 9.66504C16.5134 13.4474 13.4482 16.5126 9.66583 16.5166Z" fill="#141211" fill-opacity="0.8"/>
</g>
<defs>
<clipPath id="clip0_683_377">
<rect width="22" height="22" fill="white"/>
</clipPath>
</defs>
</svg>
