<svg width="288" height="288" viewBox="0 0 288 288" fill="none" xmlns="http://www.w3.org/2000/svg">
<path d="M21.9426 86.129C14.8103 75.136 11.1628 61.7411 13.7217 48.1648C14.9365 41.6896 17.4177 35.5179 21.0229 30.0037C24.6282 24.4895 29.2866 19.7414 34.731 16.0315C40.1753 12.3216 46.2985 9.72304 52.7493 8.3848C59.2002 7.04657 65.8517 6.99501 72.3225 8.23308C78.7933 9.47117 84.956 11.9745 90.4573 15.5995C95.9584 19.2246 100.69 23.9 104.38 29.3577C108.07 34.8153 110.647 40.9478 111.962 47.4034C113.277 53.859 113.305 60.5107 112.043 66.977C108.788 84.3477 99.3441 96.1456 80.9121 104.492C71.9999 108.53 38.4839 111.621 21.9426 86.129ZM37.2786 50.3565C38.4695 54.2455 40.6298 57.7679 43.5565 60.5924C46.483 63.417 50.0798 65.451 54.0087 66.5031C57.9375 67.5553 62.0694 67.5911 66.0159 66.6072C69.9625 65.6232 73.594 63.652 76.569 60.8786C93.5913 45.0011 79.881 16.5597 56.6409 19.8026C53.2485 20.3126 50.0055 21.546 47.1315 23.419C44.2576 25.292 41.8198 27.761 39.9837 30.6587C38.1474 33.5563 36.9555 36.8149 36.4888 40.2134C36.0221 43.612 36.2915 47.0711 37.2786 50.3565ZM45.1583 101.744C45.0388 102.152 45.4046 102.238 45.7833 102.364C69.9854 110.384 92.0836 101.442 103.572 83.2533C103.87 82.7839 103.893 82.6672 103.462 82.3202C88.2575 67.4839 50.41 77.6963 45.1583 101.744Z" fill="#F0F0F0"/>
<path d="M67.5057 33.6223C67.4769 39.4629 60.2581 41.9743 59.96 46.9379C59.8261 49.1527 62.493 50.6272 60.8341 51.978C59.4992 53.0608 57.8764 50.25 57.4228 47.7112C57.3958 46.8778 57.464 46.0439 57.6258 45.2258C58.6497 40.2304 65.2333 37.8962 64.666 33.1874C64.0986 28.4786 58.8512 29.3152 55.1044 33.0059C53.722 34.3667 54.0301 35.369 53.6212 36.1451C53.0812 37.1647 51.7016 36.472 51.5836 35.333C51.0565 30.2613 61.2892 23.1031 66.3969 30.0885C67.1454 31.1123 67.5352 32.3545 67.5057 33.6223Z" fill="#F0F0F0"/>
<path d="M61.9907 59.1191C61.7279 58.9706 61.5031 58.7631 61.3343 58.5128C61.1656 58.2625 61.0573 57.9764 61.018 57.6772C60.9788 57.3778 61.0096 57.0735 61.1082 56.7883C61.2067 56.5029 61.3703 56.2444 61.586 56.0331C61.7722 55.8462 61.9979 55.7034 62.2466 55.615C62.4952 55.5267 62.7605 55.4951 63.0229 55.5228C63.2854 55.5504 63.5382 55.6366 63.763 55.7747C63.9878 55.9127 64.1789 56.0995 64.322 56.3211C65.1472 57.7439 63.6841 59.9802 61.9907 59.1191Z" fill="#F0F0F0"/>
<path d="M29.5806 257.97C50.0055 252.377 99.9433 246.216 120.973 243.73C171.474 237.761 224.057 232.764 274.477 230.43C274.63 230.429 274.778 230.486 274.89 230.592C275.003 230.695 275.069 230.839 275.078 230.992C275.086 231.146 275.034 231.296 274.935 231.412C274.836 231.529 274.695 231.602 274.542 231.617C211.748 235.793 66.8276 251.116 30.1436 260.397C29.3862 260.587 28.8332 258.175 29.5806 257.97Z" fill="#F0F0F0"/>
<path d="M205.2 165.384C204.882 164.664 206.32 165.476 206.853 163.98C208.122 160.412 208.137 159.293 206.487 158.057C204.523 156.79 202.408 155.773 200.19 155.033C199.636 154.863 200.834 154.313 202.196 152.654C202.542 152.235 202.434 152.397 205.725 154.04C209.742 156.046 209.992 155.824 210.477 157.114C211.108 158.604 212.27 159.807 213.739 160.487C216.718 162.006 219.616 163.452 221.993 160.926C222.29 160.61 222.27 160.646 223.931 161.523C231.539 165.537 231.33 164.753 231.51 165.594C231.719 166.486 232.135 167.315 232.724 168.015C233.313 168.716 234.057 169.268 234.9 169.626C237.341 170.935 238.572 171.855 241.04 171.012C248.24 168.549 252.515 158.377 249.232 155.14C246.42 152.369 244.893 150.457 241.007 151.311C240.405 151.443 240.887 151.448 233.3 146.137C232.512 145.585 232.501 145.447 232.623 144.998C232.747 144.533 232.759 144.045 232.656 143.574C232.554 143.103 232.341 142.664 232.034 142.292C227.799 136.698 223.97 136.9 222.602 136.984C222.471 137 222.337 136.984 222.212 136.94C222.087 136.895 221.974 136.822 221.882 136.727C215.69 129.594 172.027 99.2723 161.42 92.1242C160.365 91.4128 161.025 91.1723 160.746 90.1902C159.738 86.6378 154.346 81.8181 151.098 80.5667C138.247 75.6174 122.591 92.1602 123.942 105.777C124.685 113.265 128.493 116.093 135.351 118.812C136.566 119.283 137.879 119.444 139.172 119.278C140.522 118.902 141.819 118.355 143.029 117.648C144.301 116.806 143.628 118.951 183.781 142.168C184.424 142.54 184.159 142.508 184.136 143.237C184.015 146.079 184.642 148.902 185.957 151.425C186.261 152.001 185.813 151.713 183.927 151.656C178.949 151.498 178.512 152.906 178.495 157.808C178.495 158.832 179.085 159.293 180.109 159.866C181.61 160.708 181.667 160.749 181.581 161.044C181.42 161.594 140.645 276.356 140.581 278.152C140.534 279.517 141.98 280.557 143.317 280.797C143.627 280.853 144.867 277.789 147.09 272.199C152.339 259.004 165.788 226.786 168.189 220.668C188.415 169.116 185.493 176.109 188.384 169.003C188.8 167.98 188.788 168.843 189.029 172.875C189.142 174.774 195.716 268.381 196.096 272.844C196.439 276.843 196.604 276.834 197.152 276.876C197.762 277.03 198.402 277.033 199.014 276.886C199.627 276.739 200.194 276.445 200.67 276.032C201.418 275.125 201.174 274.804 200.84 265.376C200.649 260.024 197.489 171.864 197.515 171.861C197.515 168.117 230.888 251.237 242.1 276.192C242.555 277.2 243.168 276.722 244.744 275.949C245.315 275.551 245.727 274.964 245.904 274.29C246.081 273.616 246.014 272.902 245.713 272.274C241.089 259.841 205.2 165.384 205.2 165.384ZM248.625 156.024C250.031 157.537 249.601 161.555 246.896 165.331C244.996 167.983 241.494 171.14 238.514 169.963C236.786 169.282 236.089 167.371 237.227 163.771C238.861 158.586 245.752 152.928 248.623 156.023L248.625 156.024ZM243.226 152.28C244.221 152.42 245.141 152.892 245.834 153.621C245.959 153.733 246.368 154.151 245.605 154.153C241.299 154.656 235.82 161.113 235.525 166.206C235.411 168.121 235.813 168.402 235.23 168.196C231.182 166.778 232.318 160.949 235.556 156.734C236.657 155.33 237.983 154.119 239.482 153.151C240.604 152.467 241.916 152.162 243.225 152.28H243.226ZM239.194 151.579C240.008 152.107 238.429 151.609 235.382 155.035C229.579 161.554 232.61 164.629 230.486 163.699C229.609 163.315 227.935 162.361 224.268 160.458C218.364 157.392 218.423 157.424 218.508 156.763C218.999 154.112 220.089 151.608 221.695 149.442C223.07 147.447 224.811 145.731 226.824 144.384C227.38 143.997 227.714 143.721 228.43 144.217C229.503 144.968 232.098 146.972 239.184 151.579H239.194ZM227.023 139.064C229.257 140.547 231.228 142.664 230.368 142.264C228.1 141.207 225.389 143.587 223.348 145.489C220.445 148.19 218.359 151.652 217.325 155.48C217.071 156.254 216.975 157.072 217.04 157.884C217.104 158.697 217.329 159.489 217.702 160.213C217.86 160.459 218.223 161.077 217.414 160.831C215.712 160.327 214.124 159.5 212.734 158.396C211.333 157.231 211.029 154.742 211.051 152.984C211.153 144.229 221.419 135.346 227.016 139.064H227.023ZM137.719 117.552C137.556 117.789 137.269 117.746 136.999 117.644C132.26 115.855 126.507 113.642 125.623 106.726C124.327 96.5536 131.62 85.3965 141.895 82.1018C144.662 81.0331 147.717 80.9564 150.535 81.8843C153.397 83.3125 155.92 85.3386 157.932 87.8258C156.727 87.3654 155.423 87.2168 154.145 87.3938C143.045 88.7358 130.637 110.589 137.209 116.958C137.439 117.182 137.78 117.46 137.719 117.552ZM137.554 111.861C137.394 111.793 137.263 111.669 137.187 111.511C137.111 111.354 137.095 111.175 137.141 111.007C139.455 97.4507 150.776 88.9662 153.724 89.0728C154.258 89.0368 154.217 88.9922 158.715 92.1414C176.944 104.898 203.028 122.345 220.87 137.169C221.551 137.735 216.861 137.8 212.406 144.397C208.31 150.463 210.361 155.089 209.435 154.601C174.21 136.063 141.052 113.661 137.554 111.861ZM180.682 153.189C181.546 152.256 185.918 153.045 186.442 153.102C186.68 153.114 186.912 153.18 187.119 153.294C187.328 153.409 187.507 153.57 187.643 153.765C188.879 155.255 190.58 156.288 192.472 156.695C194.364 157.103 196.338 156.862 198.078 156.012C198.367 155.812 198.721 155.726 199.07 155.772C201.117 156.401 203.086 157.261 204.939 158.335C210.708 161.955 195.247 160.71 184.625 156.331C183.516 155.868 179.863 154.064 180.682 153.184V153.189ZM202.379 163.951C190.07 163.99 179.607 159.212 179.674 157.869C179.771 155.959 179.729 154.647 180.308 155.186C184.56 159.137 200.979 162.449 206.003 161.365C206.268 161.307 206.32 161.391 206.291 161.582C206.18 162.212 206.025 162.832 205.828 163.44C205.463 164.123 204.722 163.94 202.379 163.947V163.951Z" fill="#F0F0F0"/>
<path d="M239.109 167.289C240.008 169.449 243.801 167.28 245.867 163.86C246.807 162.305 247.732 160.62 247.431 159.068C247.071 157.196 244.922 157.406 243.518 158.462C240.928 160.407 238.226 164.536 239.109 167.289Z" fill="#F0F0F0"/>
<path d="M66.5093 162.168C68.0472 162.168 67.9795 162.255 67.9493 161.736C67.9493 161.736 67.7088 159.329 67.4914 156.375C67.4237 155.457 69.3979 154.562 69.5909 159.994C69.6773 162.442 69.8098 162.298 70.236 162.308C75.6821 162.423 75.7526 162.153 75.947 162.619C76.1242 163.051 73.7669 163.712 73.3133 163.797C70.0142 164.411 70.0013 163.797 70.0013 164.713C70.0416 170.823 70.0243 169.595 70.1784 170.85C70.2086 171.091 69.9451 171.085 69.8515 171.013C68.8882 170.274 68.4115 166.785 68.3741 165.947C68.279 164.04 68.1365 164.156 67.7592 164.127C65.0563 163.92 64.3997 163.976 64.3565 163.359C64.2658 162.092 65.232 162.168 66.5093 162.168Z" fill="#F0F0F0"/>
<path d="M172.381 33.6502C172.381 36.6742 172.25 36.6166 172.771 36.618C174.843 36.618 175.363 36.6857 176.137 36.7304C176.91 36.775 176.839 37.3222 176.466 37.5512C175.435 38.1732 174.252 38.4972 173.048 38.4872C172.141 38.575 172.565 38.2683 172.107 42.486C171.847 44.898 171.624 45.8585 171.157 45.523C170.3 44.9067 170.454 40.8142 170.317 38.9105C170.286 38.4526 170.384 38.4094 168.083 38.4137C167.636 38.4137 167.033 38.467 166.902 37.9227C166.702 37.0904 166.843 36.6828 168.486 36.6267C170.382 36.5576 170.45 36.6915 170.469 36.2696C170.506 34.4485 170.643 32.6308 170.879 30.8249C170.879 30.6271 170.958 30.4373 171.098 30.2975C171.238 30.1576 171.428 30.079 171.625 30.079C171.822 30.079 172.012 30.1576 172.152 30.2975C172.292 30.4373 172.371 30.6271 172.371 30.8249C172.423 31.7658 172.426 32.7089 172.381 33.6502Z" fill="#F0F0F0"/>
<path d="M248.003 83.5635C248.383 83.6816 247.625 84.3729 246.995 84.6494C246.289 84.8687 245.561 85.0084 244.823 85.0656C244.655 85.0915 244.334 85.0656 244.28 85.3262C244.083 86.3083 244 87.7195 243.614 90.0782C243.326 91.8408 243.022 91.966 242.75 92.0078C242.538 92.0395 242.174 91.7644 242.2 90.1588C242.234 88.3358 242.334 85.8676 242.384 85.5768C242.449 85.211 241.739 85.2974 239.884 85.4961C239.698 85.5173 239.513 85.4718 239.357 85.3678C239.203 85.2638 239.089 85.108 239.039 84.9286C238.988 84.749 239.004 84.5574 239.082 84.388C239.16 84.2187 239.295 84.0826 239.465 84.0041C240.299 83.5878 241.203 83.3296 242.132 83.2424C242.297 83.2035 242.489 83.3173 242.583 83.0523C242.915 82.1192 242.827 79.7793 243.133 78.5884C243.458 77.3169 244.381 77.6912 244.406 78.6632C244.565 85.4801 243.573 82.1869 248.003 83.5635Z" fill="#F0F0F0"/>
</svg>
